<svg version="1.1" id="Layer_1" xmlns="http://www.w3.org/2000/svg" xmlns:xlink="http://www.w3.org/1999/xlink" x="0px" y="0px"
	 width="100%" viewBox="0 0 432 432" enable-background="new 0 0 432 432" xml:space="preserve">
<path fill="#000000" opacity="1.000000" stroke="none" 
	d="
M328.842285,313.878784 
	C313.260101,327.332764 295.347412,333.249817 275.260834,333.179169 
	C248.263672,333.084259 221.266205,333.078033 194.269043,332.986450 
	C192.185242,332.979401 189.903168,333.562836 188.145325,331.811523 
	C187.904388,329.791290 189.391220,328.767517 190.457260,327.551086 
	C200.777023,315.775391 211.163574,304.057709 221.405670,292.215027 
	C223.289261,290.037079 225.432571,289.649902 228.040527,289.659180 
	C241.705734,289.707794 255.386505,290.065155 269.032166,289.541290 
	C281.518463,289.061951 290.930176,282.790833 296.167419,271.356506 
	C301.030151,260.739838 299.389740,250.468384 292.310089,241.306931 
	C286.860840,234.255280 279.153259,231.177872 270.426727,231.069046 
	C254.097916,230.865402 237.763474,230.817978 221.435440,231.026016 
	C216.473709,231.089233 214.167969,229.852966 214.281570,224.403366 
	C214.510437,213.425690 214.222763,202.436142 214.078217,191.452408 
	C214.028717,187.690094 215.937531,186.722839 219.411026,186.747818 
	C234.908524,186.859207 250.410156,186.953156 265.904999,186.712906 
	C280.740784,186.482895 292.344513,177.575546 295.598328,164.448929 
	C300.297974,145.489258 287.014191,128.501907 266.957123,128.353958 
	C239.627991,128.152344 212.296066,128.340179 184.965347,128.335510 
	C156.135254,128.330582 127.304901,128.232178 98.475349,128.348160 
	C94.544937,128.363968 92.080505,127.239418 89.978119,123.766823 
	C82.990646,112.225357 75.641846,100.902893 68.464920,89.475533 
	C67.702530,88.261620 66.459511,87.160820 66.979790,85.409012 
	C68.437424,84.247734 70.164963,84.707382 71.764015,84.706841 
	C141.590775,84.683342 211.422211,84.227798 281.241943,84.929985 
	C307.657471,85.195663 328.670624,97.292068 341.719879,121.028732 
	C355.947479,146.908676 350.783295,179.455734 329.537262,200.133163 
	C327.887909,201.738373 326.121887,203.223694 323.815826,205.299683 
	C345.104919,221.729858 354.830566,242.806885 352.114868,268.904785 
	C350.268372,286.649231 342.308411,301.572601 328.842285,313.878784 
z"/>
<path fill="#000000" opacity="1.000000" stroke="none" 
	d="
M87.910881,298.032867 
	C90.903358,289.647400 88.859535,289.963287 98.565559,289.754120 
	C124.387604,289.197784 142.603287,270.621307 142.700058,244.800278 
	C142.761841,228.312805 142.820114,211.824509 142.702026,195.337845 
	C142.678238,192.017487 143.735748,189.806107 146.343994,187.722717 
	C159.612198,177.124481 172.724823,166.331619 185.923645,155.646072 
	C187.163544,154.642273 188.266174,153.225555 190.211456,153.362656 
	C191.785980,154.626358 191.238998,156.413330 191.239334,157.978958 
	C191.245361,186.124451 191.561172,214.276001 191.080566,242.413788 
	C190.562210,272.761597 179.045395,298.164642 154.309250,316.491211 
	C139.934952,327.140900 123.490112,332.765167 105.434731,333.019897 
	C97.442284,333.132690 89.446808,333.127899 81.453682,333.060944 
	C76.276276,333.017548 75.828888,332.339020 77.488617,327.598663 
	C80.898117,317.860748 84.346886,308.136566 87.910881,298.032867 
z"/>
</svg>